<svg width="100" height="99" viewBox="0 0 100 99" fill="none" xmlns="http://www.w3.org/2000/svg">
<g clip-path="url(#clip0_163_1250)">
<path d="M68.467 51.6784C76.928 51.6784 83.8226 44.1421 83.8226 34.9722C83.8226 25.9066 76.9634 18.7256 68.467 18.7256C60.0414 18.7256 53.1097 26.0127 53.1097 35.0429C53.145 44.1774 60.0414 51.6784 68.467 51.6784ZM27.5164 52.4598C34.8389 52.4598 40.846 45.8834 40.846 37.8149C40.846 29.9232 34.9096 23.5607 27.5164 23.5607C20.1939 23.5607 14.1514 30.031 14.1868 37.8856C14.2221 45.9205 20.1939 52.4598 27.5164 52.4598ZM68.467 46.3112C63.2766 46.3112 58.8322 41.3347 58.8322 35.0429C58.8322 28.8554 63.2059 24.0946 68.467 24.0946C73.7635 24.0946 78.1001 28.7865 78.1001 34.9704C78.1001 41.264 73.7282 46.3112 68.467 46.3112ZM27.5164 47.1633C23.1798 47.1633 19.4832 43.0053 19.4832 37.8856C19.4832 32.8737 23.1427 28.8572 27.5164 28.8572C31.9944 28.8572 35.5849 32.803 35.5849 37.8149C35.5849 43.0053 31.8883 47.1633 27.5164 47.1633ZM7.75175 85.0574H35.6574C33.9496 84.0974 32.6343 81.9636 32.8836 79.7962H6.86429C6.15361 79.7962 5.79827 79.5134 5.79827 78.8363C5.79827 70.0217 15.8574 61.7747 27.4828 61.7747C31.9608 61.7747 35.9774 62.8407 39.4264 64.8667C40.5698 63.4175 41.9237 62.1477 43.443 61.0994C38.8572 58.0763 33.3486 56.5135 27.4828 56.5135C12.5868 56.5135 0.5 67.3187 0.5 79.1563C0.5 83.1021 2.91666 85.0574 7.75175 85.0574ZM46.1425 85.0574H90.7915C96.6909 85.0574 99.5 83.2807 99.5 79.3702C99.5 70.0571 87.7331 56.5825 68.467 56.5825C49.1638 56.5825 37.3987 70.0571 37.3987 79.3702C37.3987 83.2807 40.2061 85.0574 46.1425 85.0574ZM44.4366 79.6901C43.512 79.6901 43.1213 79.4426 43.1213 78.6948C43.1213 72.8644 52.1497 61.9532 68.467 61.9532C84.749 61.9532 93.7757 72.8644 93.7757 78.6948C93.7757 79.4409 93.4221 79.6901 92.4958 79.6901H44.4366Z" fill="white"/>
</g>
<defs>
<clipPath id="clip0_163_1250">
<rect width="99" height="99" fill="white" transform="translate(0.5)"/>
</clipPath>
</defs>
</svg>
