<svg width="23" height="23" viewBox="0 0 23 23" fill="none" xmlns="http://www.w3.org/2000/svg">
<path d="M16.7708 1.91699H7.66658C5.54949 1.91699 3.83325 3.63323 3.83325 5.75033V17.2503C3.83325 19.3674 5.54949 21.0837 7.66658 21.0837H16.7708C18.8878 21.0837 20.6041 19.3674 20.6041 17.2503V5.75033C20.6041 3.63323 18.8878 1.91699 16.7708 1.91699Z" stroke="white" stroke-width="1.5" stroke-linecap="round" stroke-linejoin="round"/>
<path d="M10.1487 13.1675C9.54588 13.5719 7.96654 14.3961 8.92871 15.4272C9.39829 15.9313 9.9225 16.2917 10.5799 16.2917H14.3366C14.994 16.2917 15.5182 15.9313 15.9878 15.4272C16.95 14.3961 15.3706 13.5719 14.7678 13.1685C14.0865 12.7058 13.2819 12.4584 12.4583 12.4584C11.6346 12.4584 10.83 12.7058 10.1487 13.1685M4.79159 5.75H2.39575M4.79159 11.5H2.39575M4.79159 17.25H2.39575M14.3749 8.625C14.3749 9.13333 14.173 9.62084 13.8135 9.98029C13.4541 10.3397 12.9666 10.5417 12.4583 10.5417C11.9499 10.5417 11.4624 10.3397 11.103 9.98029C10.7435 9.62084 10.5416 9.13333 10.5416 8.625C10.5416 8.11667 10.7435 7.62916 11.103 7.26971C11.4624 6.91027 11.9499 6.70833 12.4583 6.70833C12.9666 6.70833 13.4541 6.91027 13.8135 7.26971C14.173 7.62916 14.3749 8.11667 14.3749 8.625Z" stroke="white" stroke-width="1.5" stroke-linecap="round" stroke-linejoin="round"/>
</svg>
