<svg width="22" height="22" viewBox="0 0 22 22" fill="none" xmlns="http://www.w3.org/2000/svg">
<g clip-path="url(#clip0_163_516)">
<path d="M21.1852 18.717C21.3679 19.1823 21.3679 19.6474 21.0938 20.0195C20.8198 20.3916 20.4544 20.6707 19.9063 20.6707H2.09368C1.63695 20.6707 1.18021 20.3916 0.906168 20.0195C0.632128 19.6474 0.632136 19.0892 0.81483 18.717L2.73311 14.4375H19.1756L21.1852 18.717Z" stroke="white" stroke-width="1.5" stroke-miterlimit="10" stroke-linecap="round" stroke-linejoin="round"/>
<path d="M19.1783 14.4374V2.7041C19.1783 1.97077 18.5389 1.3291 17.8081 1.3291H4.10581C3.37502 1.3291 2.7356 1.97077 2.7356 2.7041V14.4374H19.1783Z" stroke="white" stroke-width="1.5" stroke-miterlimit="10" stroke-linecap="round" stroke-linejoin="round"/>
<path d="M9.625 17.9209H12.375" stroke="white" stroke-width="1.5" stroke-miterlimit="10" stroke-linecap="round" stroke-linejoin="round"/>
<path d="M11 9.67082C12.5188 9.67082 13.75 8.43969 13.75 6.92091C13.75 5.40212 12.5188 4.1709 11 4.1709C9.48127 4.1709 8.25 5.40212 8.25 6.92091C8.25 8.43969 9.48127 9.67082 11 9.67082Z" stroke="white" stroke-width="1.5" stroke-miterlimit="10" stroke-linecap="round" stroke-linejoin="round"/>
<path d="M14.3 11.6872C13.475 10.7706 12.2833 10.1289 11 10.1289C9.71662 10.1289 8.52495 10.6789 7.69995 11.6872" stroke="white" stroke-width="1.5" stroke-miterlimit="10" stroke-linecap="round" stroke-linejoin="round"/>
</g>
<defs>
<clipPath id="clip0_163_516">
<rect width="22" height="22" fill="white"/>
</clipPath>
</defs>
</svg>
