<svg width="25" height="25" viewBox="0 0 25 25" fill="none" xmlns="http://www.w3.org/2000/svg">
<path d="M16.6665 4.1665C16.6665 3.89028 16.5568 3.62537 16.3615 3.43005C16.1661 3.23473 15.9012 3.125 15.625 3.125H9.375C9.09878 3.125 8.83387 3.23473 8.63855 3.43005C8.44323 3.62537 8.3335 3.89028 8.3335 4.1665V7.2915H16.6665V4.1665ZM21.875 20.8335V8.3335C21.8751 8.19669 21.8482 8.0612 21.7959 7.93478C21.7436 7.80836 21.6668 7.69349 21.5701 7.59672C21.4734 7.49996 21.3586 7.4232 21.2322 7.37083C21.1058 7.31846 20.9703 7.2915 20.8335 7.2915H4.1665C4.02969 7.2915 3.89421 7.31846 3.76782 7.37083C3.64143 7.4232 3.52659 7.49996 3.42987 7.59672C3.33315 7.69349 3.25645 7.80836 3.20414 7.93478C3.15183 8.0612 3.12493 8.19669 3.125 8.3335V20.8335C3.125 21.1097 3.23473 21.3746 3.43005 21.57C3.62537 21.7653 3.89028 21.875 4.1665 21.875H20.8335C21.1097 21.875 21.3746 21.7653 21.57 21.57C21.7653 21.3746 21.875 21.1097 21.875 20.8335Z" stroke="white" stroke-width="1.5" stroke-linecap="round" stroke-linejoin="round"/>
<path d="M11.4585 14.583H9C8.19153 14.5761 7.40253 14.3341 6.72927 13.8865C6.05601 13.4388 5.5276 12.8049 5.2085 12.062L3.3125 7.73902C3.4081 7.60094 3.53571 7.48806 3.68443 7.41005C3.83315 7.33203 3.99856 7.29119 4.1665 7.29102H20.8335C21.0014 7.29119 21.1668 7.33203 21.3156 7.41005C21.4643 7.48806 21.5919 7.60094 21.6875 7.73902L19.7915 12.062C19.4724 12.8049 18.944 13.4388 18.2707 13.8865C17.5975 14.3341 16.8085 14.5761 16 14.583H13.5415" stroke="white" stroke-width="1.5" stroke-linecap="round" stroke-linejoin="round"/>
<path d="M13.5415 13.541H11.4585V15.6245H13.5415V13.541Z" stroke="white" stroke-width="1.5" stroke-linecap="round" stroke-linejoin="round"/>
</svg>
