<svg width="22" height="22" viewBox="0 0 22 22" fill="none" xmlns="http://www.w3.org/2000/svg">
<path d="M11.4207 1.52176C11.2988 1.42665 11.1485 1.375 10.9938 1.375C10.8391 1.375 10.6889 1.42665 10.5669 1.52176L0.6875 9.2252L1.54206 10.3059L2.75 9.36407V17.8746C2.75073 18.2391 2.89583 18.5884 3.15353 18.8461C3.41124 19.1038 3.76055 19.2489 4.125 19.2496H17.875C18.2394 19.2489 18.5888 19.1038 18.8465 18.8461C19.1042 18.5884 19.2493 18.2391 19.25 17.8746V9.37026L20.4579 10.3121L21.3125 9.23139L11.4207 1.52176ZM12.375 17.8746H9.625V12.3746H12.375V17.8746ZM13.75 17.8746V12.3746C13.75 12.01 13.6051 11.6602 13.3473 11.4024C13.0894 11.1445 12.7397 10.9996 12.375 10.9996H9.625C9.26033 10.9996 8.91059 11.1445 8.65273 11.4024C8.39487 11.6602 8.25 12.01 8.25 12.3746V17.8746H4.125V8.29226L11 2.93664L17.875 8.29914V17.8746H13.75Z" fill="#21949A"/>
</svg>
