<svg width="23" height="23" viewBox="0 0 23 23" fill="none" xmlns="http://www.w3.org/2000/svg">
<path d="M16.771 1.91699H7.66683C5.54974 1.91699 3.8335 3.63323 3.8335 5.75033V17.2503C3.8335 19.3674 5.54974 21.0837 7.66683 21.0837H16.771C18.8881 21.0837 20.6043 19.3674 20.6043 17.2503V5.75033C20.6043 3.63323 18.8881 1.91699 16.771 1.91699Z" stroke="white" stroke-width="1.5" stroke-linecap="round" stroke-linejoin="round"/>
<path d="M10.1489 13.1675C9.54612 13.5719 7.96679 14.3961 8.92896 15.4272C9.39854 15.9313 9.92275 16.2917 10.5802 16.2917H14.3368C14.9942 16.2917 15.5185 15.9313 15.988 15.4272C16.9502 14.3961 15.3709 13.5719 14.7681 13.1685C14.0867 12.7058 13.2821 12.4584 12.4585 12.4584C11.6349 12.4584 10.8303 12.7058 10.1489 13.1685M4.79183 5.75H2.396M4.79183 11.5H2.396M4.79183 17.25H2.396M14.3752 8.625C14.3752 9.13333 14.1732 9.62084 13.8138 9.98029C13.4543 10.3397 12.9668 10.5417 12.4585 10.5417C11.9502 10.5417 11.4627 10.3397 11.1032 9.98029C10.7438 9.62084 10.5418 9.13333 10.5418 8.625C10.5418 8.11667 10.7438 7.62916 11.1032 7.26971C11.4627 6.91027 11.9502 6.70833 12.4585 6.70833C12.9668 6.70833 13.4543 6.91027 13.8138 7.26971C14.1732 7.62916 14.3752 8.11667 14.3752 8.625Z" stroke="white" stroke-width="1.5" stroke-linecap="round" stroke-linejoin="round"/>
</svg>
