<svg width="23" height="23" viewBox="0 0 23 23" fill="none" xmlns="http://www.w3.org/2000/svg">
<g clip-path="url(#clip0_163_534)">
<path d="M10.7812 3.59375V1.4375C10.7812 1.24688 10.857 1.06406 10.9918 0.929267C11.1266 0.794475 11.3094 0.71875 11.5 0.71875C11.6906 0.71875 11.8734 0.794475 12.0082 0.929267C12.143 1.06406 12.2188 1.24688 12.2188 1.4375V3.59375C12.2188 3.78437 12.143 3.96719 12.0082 4.10198C11.8734 4.23677 11.6906 4.3125 11.5 4.3125C11.3094 4.3125 11.1266 4.23677 10.9918 4.10198C10.857 3.96719 10.7812 3.78437 10.7812 3.59375ZM17.25 11.5C17.25 12.6372 16.9128 13.7489 16.281 14.6945C15.6491 15.6401 14.7511 16.3771 13.7004 16.8123C12.6498 17.2475 11.4936 17.3614 10.3782 17.1395C9.26284 16.9177 8.23829 16.37 7.43414 15.5659C6.62998 14.7617 6.08235 13.7372 5.86049 12.6218C5.63862 11.5064 5.75249 10.3502 6.18769 9.29957C6.6229 8.2489 7.35989 7.35087 8.30547 6.71905C9.25105 6.08723 10.3628 5.75 11.5 5.75C13.0245 5.75167 14.4861 6.358 15.564 7.43598C16.642 8.51395 17.2483 9.97552 17.25 11.5ZM15.8125 11.5C15.8125 10.6471 15.5596 9.81329 15.0857 9.1041C14.6118 8.39492 13.9383 7.84217 13.1503 7.51577C12.3623 7.18937 11.4952 7.10396 10.6587 7.27036C9.82213 7.43676 9.05372 7.84749 8.4506 8.4506C7.84749 9.05372 7.43676 9.82213 7.27036 10.6587C7.10396 11.4952 7.18937 12.3623 7.51577 13.1503C7.84217 13.9383 8.39492 14.6118 9.1041 15.0857C9.81329 15.5596 10.6471 15.8125 11.5 15.8125C12.6434 15.8113 13.7396 15.3566 14.5481 14.5481C15.3566 13.7396 15.8113 12.6434 15.8125 11.5ZM5.24148 6.25852C5.37635 6.39338 5.55927 6.46915 5.75 6.46915C5.94073 6.46915 6.12365 6.39338 6.25852 6.25852C6.39338 6.12365 6.46915 5.94073 6.46915 5.75C6.46915 5.55927 6.39338 5.37635 6.25852 5.24148L4.82102 3.80398C4.68615 3.66912 4.50323 3.59335 4.3125 3.59335C4.12177 3.59335 3.93885 3.66912 3.80398 3.80398C3.66912 3.93885 3.59335 4.12177 3.59335 4.3125C3.59335 4.50323 3.66912 4.68615 3.80398 4.82102L5.24148 6.25852ZM5.24148 16.7415L3.80398 18.179C3.66912 18.3139 3.59335 18.4968 3.59335 18.6875C3.59335 18.8782 3.66912 19.0611 3.80398 19.196C3.93885 19.3309 4.12177 19.4067 4.3125 19.4067C4.50323 19.4067 4.68615 19.3309 4.82102 19.196L6.25852 17.7585C6.3253 17.6917 6.37827 17.6125 6.41441 17.5252C6.45055 17.438 6.46915 17.3444 6.46915 17.25C6.46915 17.1556 6.45055 17.062 6.41441 16.9748C6.37827 16.8875 6.3253 16.8083 6.25852 16.7415C6.19174 16.6747 6.11246 16.6217 6.02521 16.5856C5.93796 16.5495 5.84444 16.5309 5.75 16.5309C5.65556 16.5309 5.56204 16.5495 5.47479 16.5856C5.38754 16.6217 5.30826 16.6747 5.24148 16.7415ZM17.25 6.46875C17.3444 6.46882 17.4379 6.4503 17.5252 6.41422C17.6124 6.37815 17.6917 6.32524 17.7585 6.25852L19.196 4.82102C19.3309 4.68615 19.4067 4.50323 19.4067 4.3125C19.4067 4.12177 19.3309 3.93885 19.196 3.80398C19.0611 3.66912 18.8782 3.59335 18.6875 3.59335C18.4968 3.59335 18.3139 3.66912 18.179 3.80398L16.7415 5.24148C16.6409 5.34201 16.5723 5.47012 16.5445 5.60962C16.5167 5.74912 16.531 5.89373 16.5854 6.02513C16.6399 6.15654 16.7321 6.26883 16.8504 6.3478C16.9687 6.42677 17.1078 6.46886 17.25 6.46875ZM17.7585 16.7415C17.6236 16.6066 17.4407 16.5309 17.25 16.5309C17.0593 16.5309 16.8764 16.6066 16.7415 16.7415C16.6066 16.8764 16.5309 17.0593 16.5309 17.25C16.5309 17.4407 16.6066 17.6236 16.7415 17.7585L18.179 19.196C18.2458 19.2628 18.325 19.3158 18.4123 19.3519C18.4995 19.388 18.5931 19.4067 18.6875 19.4067C18.7819 19.4067 18.8755 19.388 18.9627 19.3519C19.05 19.3158 19.1292 19.2628 19.196 19.196C19.2628 19.1292 19.3158 19.05 19.3519 18.9627C19.388 18.8755 19.4067 18.7819 19.4067 18.6875C19.4067 18.5931 19.388 18.4995 19.3519 18.4123C19.3158 18.325 19.2628 18.2458 19.196 18.179L17.7585 16.7415ZM4.3125 11.5C4.3125 11.3094 4.23677 11.1266 4.10198 10.9918C3.96719 10.857 3.78437 10.7812 3.59375 10.7812H1.4375C1.24688 10.7812 1.06406 10.857 0.929267 10.9918C0.794475 11.1266 0.71875 11.3094 0.71875 11.5C0.71875 11.6906 0.794475 11.8734 0.929267 12.0082C1.06406 12.143 1.24688 12.2188 1.4375 12.2188H3.59375C3.78437 12.2188 3.96719 12.143 4.10198 12.0082C4.23677 11.8734 4.3125 11.6906 4.3125 11.5ZM11.5 18.6875C11.3094 18.6875 11.1266 18.7632 10.9918 18.898C10.857 19.0328 10.7812 19.2156 10.7812 19.4062V21.5625C10.7812 21.7531 10.857 21.9359 10.9918 22.0707C11.1266 22.2055 11.3094 22.2812 11.5 22.2812C11.6906 22.2812 11.8734 22.2055 12.0082 22.0707C12.143 21.9359 12.2188 21.7531 12.2188 21.5625V19.4062C12.2188 19.2156 12.143 19.0328 12.0082 18.898C11.8734 18.7632 11.6906 18.6875 11.5 18.6875ZM21.5625 10.7812H19.4062C19.2156 10.7812 19.0328 10.857 18.898 10.9918C18.7632 11.1266 18.6875 11.3094 18.6875 11.5C18.6875 11.6906 18.7632 11.8734 18.898 12.0082C19.0328 12.143 19.2156 12.2188 19.4062 12.2188H21.5625C21.7531 12.2188 21.9359 12.143 22.0707 12.0082C22.2055 11.8734 22.2812 11.6906 22.2812 11.5C22.2812 11.3094 22.2055 11.1266 22.0707 10.9918C21.9359 10.857 21.7531 10.7812 21.5625 10.7812Z" fill="#21949A"/>
</g>
<defs>
<clipPath id="clip0_163_534">
<rect width="23" height="23" fill="white"/>
</clipPath>
</defs>
</svg>
